<svg width="32" height="32" viewBox="0 0 32 32" xmlns="http://www.w3.org/2000/svg">
  <defs>
    <!-- Главный градиент фона -->
    <linearGradient id="mainGrad" x1="0%" y1="0%" x2="100%" y2="100%">
      <stop offset="0%" style="stop-color:#FF6B6B"/>
      <stop offset="50%" style="stop-color:#4ECDC4"/>  
      <stop offset="100%" style="stop-color:#45B7D1"/>
    </linearGradient>
    
    <!-- Акцентный градиент для букв -->
    <linearGradient id="letterGrad" x1="0%" y1="0%" x2="100%" y2="100%">
      <stop offset="0%" style="stop-color:#FFFFFF"/>
      <stop offset="100%" style="stop-color:#F8F9FA"/>
    </linearGradient>
  </defs>
  
  <!-- Основной фон с скругленными углами -->
  <rect width="32" height="32" rx="7" fill="url(#mainGrad)"/>
  
  <!-- Буква "M" стилизованная -->
  <path d="M 7 10 L 7 22 L 9.5 22 L 9.5 14.5 L 12.5 18.5 L 13.5 18.5 L 16.5 14.5 L 16.5 22 L 19 22 L 19 10 L 16 10 L 13 15.5 L 10 10 Z" 
        fill="url(#letterGrad)" 
        stroke="none"/>
        
  <!-- Буква "F" стилизованная -->
  <path d="M 22 10 L 22 22 L 24.5 22 L 24.5 17.5 L 27.5 17.5 L 27.5 15.5 L 24.5 15.5 L 24.5 12 L 28 12 L 28 10 Z" 
        fill="url(#letterGrad)" 
        stroke="none"/>
        
  <!-- Декоративная точка внизу -->
  <circle cx="16" cy="26" r="1.5" fill="url(#letterGrad)" opacity="0.8"/>
</svg>